<svg width="66" height="81" viewBox="0 0 66 81" fill="none" xmlns="http://www.w3.org/2000/svg">
<g id="Group 39">
<path id="Vector" d="M36.2159 80.0469C35.3827 79.524 35.1598 78.7595 35.1744 77.8013C35.1994 72.6476 35.1869 67.494 35.1744 62.3404C35.1423 58.0609 34.1977 53.8375 32.4038 49.9521C30.3163 45.3666 29.2732 40.3747 29.35 35.3369C29.3708 33.6975 29.3312 32.056 29.3646 30.4187C29.3771 29.8875 29.5437 29.3626 29.6208 28.8314C29.6512 28.6312 29.6448 28.4272 29.602 28.2293C28.4667 23.5048 32.0018 19.6698 36.7575 20.4468C36.8982 20.4528 37.0386 20.4292 37.1695 20.3775C37.3005 20.3259 37.4192 20.2473 37.5179 20.1469C41.3966 15.8619 47.646 15.8327 51.4748 20.1135C51.5754 20.2574 51.7183 20.3664 51.8837 20.4253C52.049 20.4843 52.2286 20.4904 52.3976 20.4427C53.899 20.1564 55.4532 20.4244 56.7721 21.1967C57.1002 21.3666 57.4767 21.4189 57.8387 21.3447C61.5883 20.451 65.1067 23.1257 65.1171 26.9691C65.1171 30.8728 65.1338 34.7787 64.9734 38.6762C64.8037 42.3263 63.919 45.9075 62.3695 49.2167C60.2 53.9362 59.1376 59.0891 59.2635 64.2818C59.3469 68.7835 59.2635 73.2872 59.2948 77.7909C59.2948 78.7428 59.0865 79.5136 58.2532 80.0406L36.2159 80.0469ZM33.1058 41.9383C33.1115 42.1023 33.1317 42.2654 33.1663 42.4258C33.8891 44.5922 34.4953 46.8003 35.3764 48.9064C37.1721 53.1809 38.2491 57.5846 38.2928 62.2383C38.3116 64.4506 38.2928 66.6649 38.3095 68.8772C38.3095 70.1666 38.8365 70.6812 40.1134 70.6812C44.8532 70.6812 49.5916 70.6812 54.3286 70.6812C55.6118 70.6812 56.1326 70.175 56.143 68.8918C56.1576 67.2774 56.1805 65.663 56.143 64.0485C56.0099 58.5664 57.1315 53.1264 59.4219 48.1439C60.3009 46.1962 60.8425 44.0944 61.5925 41.9071C60.7155 41.9071 60.0968 41.9321 59.4781 41.9071C59.2885 41.8819 59.0959 41.9183 58.9286 42.0109C58.7613 42.1036 58.6282 42.2476 58.549 42.4216C58.2402 42.9841 57.8073 43.4689 57.2832 43.8392C56.7592 44.2095 56.1577 44.4556 55.5243 44.5589C54.7223 44.6881 53.8829 44.5818 52.9621 44.5818C52.9621 45.8588 53.0017 47.2065 52.9621 48.5522C52.9096 49.6942 52.4401 50.7773 51.6425 51.5963C50.8449 52.4153 49.7746 52.9133 48.6344 52.9959C47.4942 53.0786 46.3633 52.7402 45.4559 52.0449C44.5485 51.3495 43.9277 50.3455 43.711 49.223C43.6273 48.7107 43.5882 48.1922 43.5943 47.6732C43.5818 45.7796 43.5943 43.8861 43.5943 41.955L33.1058 41.9383ZM61.9945 28.071C61.9945 27.769 61.9945 27.4878 61.9945 27.2045C61.9758 24.863 60.003 23.6632 57.8928 24.7047C57.0242 25.1359 56.4867 25.0714 55.7743 24.3943C54.764 23.4299 53.6037 23.2028 52.3226 23.7048C50.879 24.2694 50.4936 24.161 49.6291 22.8362C47.2377 19.1657 41.8716 19.0865 39.5073 22.7591C38.7323 23.9631 37.8887 24.3152 36.5909 23.6882C35.4535 23.132 34.2766 23.409 33.3579 24.3256C32.4705 25.213 32.2497 26.292 32.6309 27.494C32.7809 27.969 33.0475 28.1773 33.5933 28.1689C36.093 28.1335 38.5928 28.1439 41.0925 28.1564C44.4109 28.1731 46.6732 30.4354 46.694 33.7517C46.694 35.8348 46.694 37.9179 46.694 40.001C46.694 42.682 46.694 45.363 46.694 48.044C46.694 49.0563 47.221 49.7104 48.0689 49.8521C49.0229 49.9979 49.8228 49.2501 49.8291 48.1439C49.8458 45.5942 49.8291 43.0424 49.8416 40.4906C49.8313 40.1539 49.8678 39.8174 49.9499 39.4907C50.0279 39.1836 50.207 38.9116 50.4582 38.7186C50.7095 38.5255 51.0184 38.4225 51.3352 38.4262C51.6497 38.3977 51.9649 38.4721 52.2335 38.6381C52.5021 38.8042 52.7095 39.0529 52.8246 39.3469C52.9003 39.5674 52.9492 39.7961 52.9704 40.0281C53.1413 41.0134 53.7745 41.5759 54.6515 41.5175C55.5285 41.4592 56.068 40.8301 56.1097 39.8136C56.1201 39.5532 56.1097 39.2928 56.1097 39.0324C56.1264 36.9243 56.066 34.812 56.1847 32.7101C56.3034 30.6083 57.8866 28.8376 59.9343 28.3356C60.5842 28.1835 61.2404 28.1648 61.9945 28.071ZM43.5777 38.7283C43.5777 37.0784 43.5777 35.4723 43.5777 33.8663C43.5777 32.1477 42.7111 31.2894 40.9779 31.2853C38.3754 31.2769 35.7736 31.2769 33.1725 31.2853C32.9496 31.2853 32.7267 31.3165 32.5746 31.3269L32.5746 38.7283L43.5777 38.7283ZM56.0993 76.8889L56.0993 73.7225L38.374 73.7225L38.374 76.8889L56.0993 76.8889ZM61.8904 38.7324L61.8904 31.3353C60.1614 31.152 59.2823 31.9019 59.2594 33.6267C59.2448 34.7183 59.2594 35.8098 59.2594 36.9014L59.2594 38.7408L61.8904 38.7324Z" fill="black"/>
<path id="Vector_2" d="M4.03164 80.0469C3.94254 79.9952 3.84915 79.9513 3.75251 79.9156C1.40483 79.2449 0.127884 77.5576 0.127884 75.0911C0.127884 64.8853 0.127884 54.678 0.127884 44.4693C0.127884 43.0403 0.127883 41.603 0.263285 40.1823C0.679909 35.8827 2.37765 32.1144 5.21902 28.871C5.57549 28.5011 5.77162 28.0056 5.7648 27.4919C5.82336 21.5836 6.24984 15.6845 7.04175 9.82918C7.05425 9.72919 7.05841 9.62087 7.06674 9.53338C5.69814 8.95636 5.5419 8.72305 5.53982 7.25445C5.53982 6.49828 5.53982 5.74419 5.53982 4.99011C5.53982 2.09666 6.21891 1.08843 8.8728 0.046875L16.997 0.046875C17.6594 0.392672 18.4551 0.605141 18.9468 1.11759C19.5259 1.72794 20.105 2.56119 20.2091 3.35902C20.4174 4.92136 20.3299 6.52744 20.2779 8.11061C20.2508 8.93344 19.5946 9.27924 18.7989 9.46881C18.9905 11.1895 19.2446 12.908 19.3592 14.637C19.6446 18.9449 19.8571 23.259 20.1321 27.5669C20.1559 27.9906 20.3085 28.3968 20.5695 28.7314C24.0129 32.7185 25.7481 37.3284 25.746 42.5945C25.746 53.1643 25.746 63.7326 25.746 74.2996C25.746 77.6846 24.9461 78.8616 21.8402 80.0385L4.03164 80.0469ZM3.33172 45.7734C4.02331 45.1817 4.667 44.5756 5.36901 44.0485C5.62813 43.8435 5.94989 43.7339 6.28027 43.7381C6.61065 43.7423 6.92954 43.86 7.1834 44.0715C7.45228 44.2439 7.65328 44.5041 7.75236 44.8078C7.85144 45.1115 7.84251 45.4401 7.72709 45.7379C7.55279 46.1391 7.27888 46.489 6.93134 46.7545C4.93988 48.4043 3.63169 50.4708 3.39005 53.0476C3.20256 54.9828 3.25464 56.9451 3.26506 58.8949C3.29214 63.8298 7.04383 67.9065 12.0141 68.4564C16.6866 68.973 21.3007 65.7859 22.2797 61.0843C22.6964 59.1011 22.5506 56.9993 22.613 54.9516C22.7172 51.5519 21.4444 48.773 18.7822 46.6358C17.9739 45.9879 17.8344 45.088 18.3781 44.3756C18.9218 43.6632 19.8967 43.5423 20.7237 44.2089C21.3486 44.7026 21.9214 45.2505 22.5214 45.7796C22.561 45.7129 22.6068 45.6734 22.6068 45.6338C22.6068 44.7214 22.6068 43.8111 22.6214 42.9007C22.6859 37.9783 21.0215 33.7454 17.6219 30.1687C17.2657 29.7377 17.0537 29.2059 17.0157 28.6481C16.9136 27.5628 16.9803 26.465 16.947 25.3713C16.9095 24.1215 16.8366 22.8945 16.7803 21.6884L8.86448 21.6884C8.86448 23.5194 8.77907 25.2922 8.88947 27.0524C8.99571 28.7189 8.69157 30.1354 7.32296 31.2041C7.19114 31.3294 7.07375 31.4692 6.973 31.6207C3.66918 35.7744 2.87343 40.5926 3.33172 45.7734ZM3.33172 67.2961C3.29485 67.3873 3.2683 67.4823 3.25256 67.5794C3.25256 70.1562 3.23381 72.7331 3.25256 75.3099C3.25256 76.3514 3.92332 76.918 5.04403 76.9201C10.3018 76.9201 15.5603 76.9201 20.8195 76.9201C22.0027 76.9201 22.6026 76.3202 22.611 75.1453C22.6235 73.7142 22.611 72.2831 22.611 70.852L22.611 67.1982C19.9029 70.0875 16.7449 71.5894 12.9599 71.5998C9.17485 71.6103 5.97519 70.1 3.33588 67.2961L3.33172 67.2961ZM9.24777 18.4387L16.6262 18.4387C16.2991 15.4119 15.9783 12.4477 15.6554 9.48131L10.2123 9.48131C9.88937 12.4727 9.57065 15.4349 9.24777 18.4387ZM17.1969 6.27123C17.1969 5.50256 17.2157 4.81305 17.1969 4.10895C17.2045 3.98409 17.1851 3.85906 17.1402 3.74231C17.0954 3.62556 17.026 3.51979 16.9367 3.43213C16.8475 3.34447 16.7405 3.27698 16.623 3.23418C16.5054 3.19138 16.3801 3.17429 16.2554 3.18405C14.0493 3.16947 11.8433 3.14654 9.63939 3.2132C9.32068 3.2132 8.80615 3.65274 8.74574 3.95479C8.6145 4.69846 8.70199 5.47964 8.70199 6.27123L17.1969 6.27123Z" fill="black"/>
<path id="Vector_3" d="M19.4968 55.6265C19.5037 56.02 19.4143 56.4093 19.2364 56.7604C19.0585 57.1115 18.7975 57.4138 18.476 57.6409C17.724 58.1992 17.5345 58.8491 17.7907 59.724C17.8997 60.0984 17.9295 60.4915 17.8782 60.878C17.6324 62.505 15.8992 63.4757 14.4577 62.6508C13.3557 62.0258 12.4912 61.9842 11.4247 62.6508C10.5914 63.1736 9.65196 63.0153 8.87287 62.3862C8.51692 62.1169 8.24636 61.7505 8.09373 61.331C7.9411 60.9116 7.91291 60.457 8.01254 60.0219C8.023 59.945 8.03973 59.869 8.06254 59.7948C8.37918 58.8762 8.13545 58.1908 7.3522 57.5805C6.51895 56.9264 6.16065 56.0202 6.49603 54.9412C6.83142 53.8621 7.61883 53.2747 8.68331 53.2372C9.79569 53.2101 10.2998 52.6664 10.7248 51.7228C11.3893 50.2437 12.9808 49.7584 14.2119 50.6125C14.6575 50.9268 15.0061 51.3598 15.218 51.8623C15.5743 52.7706 16.12 53.1539 17.1074 53.2309C18.5948 53.3455 19.4843 54.335 19.4968 55.6265ZM10.4727 56.1306C10.8185 56.6306 11.2372 57.0347 11.3934 57.5221C11.5497 58.0096 11.4268 58.5637 11.4268 59.2032C12.4558 58.4241 13.4495 58.4221 14.4494 59.1928C14.4494 57.3888 14.4494 57.3888 15.4451 56.1306C14.1952 56.1306 13.362 55.5411 12.9245 54.3496C12.5058 55.5869 11.6497 56.0973 10.4727 56.1306Z" fill="black"/>
<path id="Vector_4" d="M12.9184 41.5738C13.1205 41.568 13.3218 41.6023 13.5106 41.6746C13.6994 41.747 13.872 41.8561 14.0184 41.9955C14.1648 42.135 14.2822 42.3021 14.3637 42.4871C14.4452 42.6721 14.4892 42.8715 14.4933 43.0736C14.4956 43.2788 14.4575 43.4824 14.3811 43.6729C14.3047 43.8633 14.1916 44.0368 14.0482 44.1836C13.9047 44.3303 13.7338 44.4473 13.5452 44.528C13.3565 44.6087 13.1538 44.6514 12.9486 44.6537C12.7434 44.656 12.5398 44.6179 12.3494 44.5415C12.159 44.4652 11.9854 44.352 11.8387 44.2086C11.692 44.0652 11.5749 43.8942 11.4943 43.7056C11.4136 43.5169 11.3709 43.3142 11.3686 43.1091C11.3686 42.9062 11.4088 42.7054 11.4868 42.5182C11.5649 42.3309 11.6793 42.161 11.8234 42.0183C11.9675 41.8755 12.1385 41.7627 12.3264 41.6864C12.5144 41.6102 12.7156 41.5719 12.9184 41.5738Z" fill="black"/>
</g>
</svg>
