<svg width="81" height="81" viewBox="0 0 81 81" fill="none" xmlns="http://www.w3.org/2000/svg">
<g id="Group 40">
<path id="Vector" d="M40.7748 34.5832C50.0538 34.5832 59.3328 34.5571 68.6141 34.5832C70.2042 34.5884 71.7775 34.9079 73.2437 35.5232C74.7099 36.1385 76.04 37.0375 77.1576 38.1685C78.2752 39.2996 79.1582 40.6404 79.7559 42.1138C80.3536 43.5872 80.6543 45.1643 80.6405 46.7543C80.6073 53.3167 75.2833 58.7285 68.7161 58.7593C59.1691 58.8044 49.622 58.7735 40.0773 58.7735C31.0332 58.7735 21.9914 58.7996 12.9497 58.7735C11.3594 58.7676 9.786 58.4476 8.3198 57.8318C6.85359 57.216 5.52352 56.3165 4.40598 55.1851C3.28845 54.0537 2.40549 52.7126 1.80782 51.2389C1.21016 49.7652 0.909571 48.1879 0.923334 46.5977C0.951805 40.0376 6.28289 34.6235 12.8477 34.595C22.1575 34.5523 31.465 34.5832 40.7748 34.5832ZM40.7297 53.0889C50.0087 53.0889 59.2877 53.1055 68.5667 53.0889C70.194 53.0712 71.7536 52.4348 72.9286 51.3089C74.1037 50.183 74.8063 48.6521 74.8935 47.027C74.9808 45.4019 74.4463 43.8046 73.3986 42.5593C72.3508 41.314 70.8684 40.5142 69.2523 40.3223C68.1776 40.1942 67.2523 40.3223 66.3128 41.1124C62.391 44.3675 58.379 47.5182 54.3955 50.6927C52.7348 52.026 51.6102 52.0213 49.947 50.6927C46.3099 47.7911 42.6183 44.9535 39.0737 41.9404C37.598 40.6853 36.1199 40.2156 34.1981 40.244C27.1754 40.3508 20.148 40.2749 13.1229 40.2915C9.4004 40.3033 6.55574 43.1978 6.62217 46.8444C6.68385 50.3415 9.53327 53.0889 13.1632 53.0937C22.3529 53.1 31.5417 53.0968 40.7297 53.0842L40.7297 53.0889ZM58.194 40.3555L46.1462 40.3555L52.1748 45.1694L58.194 40.3555Z" fill="black"/>
<path id="Vector_2" d="M40.6895 32.4454L12.8526 32.4454C10.5085 32.4454 9.43848 31.3517 9.4717 29.0005C9.66862 15.6242 19.4767 3.91097 32.7818 1.69028C39.5222 0.565696 46.431 0.299977 52.9863 2.76267C64.18 6.9668 70.5075 15.1544 71.9666 27.0574C72.0537 27.823 72.0981 28.593 72.0995 29.3635C72.1208 31.2355 70.9441 32.4478 69.0721 32.4478C64.5952 32.4478 60.1182 32.4478 55.6412 32.4478L40.6895 32.4454ZM66.2203 26.7181C66.1539 26.2958 66.1065 25.9755 66.0543 25.6553C64.5833 16.419 56.7705 8.51843 47.4987 7.22065C44.2602 6.76987 40.9362 6.82918 37.6527 6.84579C27.9371 6.89799 19.2323 13.3347 16.2761 22.5828C15.8514 23.9114 15.6023 25.297 15.2583 26.7181L66.2203 26.7181Z" fill="black"/>
<path id="Vector_3" d="M40.8179 80.8452C36.163 80.8452 31.5104 80.8452 26.8579 80.8452C18.2432 80.8452 11.3581 75.1511 9.74003 66.7191C9.55966 65.7283 9.47387 64.7226 9.48381 63.7155C9.48381 62.1591 10.6867 60.9918 12.2478 60.923C12.4851 60.923 12.7223 60.923 12.9596 60.923L68.6192 60.923C71.1151 60.923 72.178 62.031 72.0879 64.5388C71.7771 73.348 64.3131 80.71 55.4801 80.8333C50.5927 80.9021 45.7005 80.8333 40.8108 80.8333L40.8179 80.8452ZM15.5907 66.6313C16.599 71.4025 21.2848 75.1131 26.4166 75.1369C35.9945 75.1796 45.5724 75.163 55.1504 75.1369C57.6442 75.1076 60.0591 74.2587 62.0228 72.7212C63.9865 71.1837 65.3899 69.0429 66.0166 66.629L15.5907 66.6313Z" fill="black"/>
<path id="Vector_4" d="M35.0809 9.67159C35.6447 9.67159 36.1958 9.839 36.6644 10.1526C37.1329 10.4662 37.4978 10.9118 37.7128 11.433C37.9278 11.9542 37.9832 12.5275 37.872 13.0802C37.7608 13.6329 37.488 14.1402 37.0881 14.5377C36.6883 14.9352 36.1795 15.205 35.6261 15.313C35.0727 15.4209 34.4998 15.3622 33.9799 15.1442C33.4599 14.9261 33.0164 14.5586 32.7056 14.0882C32.3948 13.6179 32.2306 13.0658 32.2339 12.502C32.2426 11.7512 32.5458 11.0338 33.0784 10.5044C33.6109 9.97495 34.33 9.67589 35.0809 9.67159Z" fill="black"/>
<path id="Vector_5" d="M52.1656 15.3253C52.1736 15.89 52.0135 16.4444 51.7055 16.9179C51.3976 17.3913 50.9558 17.7625 50.4363 17.9842C49.9169 18.2059 49.3432 18.268 48.7883 18.1628C48.2334 18.0575 47.7223 17.7896 47.3201 17.3931C46.9179 16.9966 46.6427 16.4894 46.5296 15.936C46.4164 15.3827 46.4704 14.8082 46.6846 14.2856C46.8989 13.763 47.2637 13.316 47.7327 13.0013C48.2018 12.6867 48.7538 12.5186 49.3186 12.5186C50.0667 12.5185 50.7848 12.8129 51.3176 13.3381C51.8504 13.8634 52.155 14.5772 52.1656 15.3253Z" fill="black"/>
<path id="Vector_6" d="M26.542 21.0479C26.542 21.6118 26.3745 22.163 26.0609 22.6316C25.7472 23.1002 25.3014 23.4651 24.7801 23.68C24.2587 23.8949 23.6853 23.9502 23.1325 23.8388C22.5797 23.7274 22.0725 23.4543 21.6751 23.0542C21.2777 22.6542 21.008 22.1451 20.9003 21.5916C20.7926 21.0381 20.8517 20.465 21.0701 19.9452C21.2885 19.4253 21.6564 18.982 22.1271 18.6714C22.5978 18.3609 23.1501 18.1971 23.7139 18.2009C24.4657 18.2059 25.185 18.508 25.7148 19.0414C26.2447 19.5748 26.542 20.2961 26.542 21.0479Z" fill="black"/>
<path id="Vector_7" d="M40.8036 18.2127C41.3679 18.216 41.9186 18.3871 42.3855 18.704C42.8525 19.021 43.2147 19.4696 43.4262 19.9929C43.6377 20.5162 43.6888 21.0905 43.5732 21.6429C43.4576 22.1953 43.1804 22.7009 42.7768 23.0955C42.3732 23.49 41.8615 23.7557 41.3066 23.8588C40.7517 23.9619 40.1787 23.8977 39.6604 23.6745C39.142 23.4512 38.7017 23.079 38.3954 22.6049C38.089 22.1309 37.9305 21.5766 37.9399 21.0122C37.9567 20.2639 38.2657 19.5519 38.801 19.0286C39.3362 18.5054 40.055 18.2125 40.8036 18.2127Z" fill="black"/>
<path id="Vector_8" d="M57.8925 18.2127C58.4568 18.2175 59.0069 18.3898 59.473 18.7079C59.9391 19.0259 60.3002 19.4753 60.5104 19.999C60.7207 20.5226 60.7705 21.0969 60.6537 21.649C60.5369 22.2011 60.2587 22.7059 59.8543 23.0996C59.45 23.4932 58.9379 23.7578 58.3829 23.8598C57.8279 23.9617 57.2551 23.8965 56.7373 23.6723C56.2194 23.4482 55.7799 23.0752 55.4744 22.6007C55.169 22.1262 55.0115 21.5717 55.0218 21.0075C55.0398 20.2588 55.3504 19.5469 55.887 19.0245C56.4236 18.502 57.1436 18.2106 57.8925 18.2127Z" fill="black"/>
</g>
</svg>
