<svg width="53" height="81" viewBox="0 0 53 81" fill="none" xmlns="http://www.w3.org/2000/svg">
<path id="Vector" d="M4.17445 18.0668C3.91264 18.0406 3.76984 18.0287 3.62941 18.012C1.99903 17.805 0.8899 16.5292 0.987485 14.975C1.037 14.2393 1.36909 13.5513 1.9143 13.0549C2.4595 12.5585 3.17557 12.2922 3.91265 12.3116C9.89151 12.3005 15.8712 12.3005 21.8516 12.3116L26.6904 12.3116C26.6904 11.2573 26.6714 10.2576 26.6904 9.26033C26.7856 5.0142 29.8869 1.59397 34.2116 0.946573C38.1031 0.365823 42.1279 2.90066 43.3679 6.78263C43.6115 7.63593 43.756 8.51442 43.7987 9.40076C43.8701 10.3171 43.8154 11.2406 43.8154 12.3045L46.6572 12.3045C47.5498 12.3045 48.4423 12.3045 49.3349 12.3045C51.0509 12.3188 52.3148 13.4565 52.3814 15.0345C52.4481 16.6125 51.3199 17.8288 49.5895 18.0073C49.5015 18.0073 49.4134 18.0358 49.223 18.0668C49.5697 18.6625 49.9504 19.2379 50.3631 19.79C51.9934 21.7369 52.4576 23.929 52.4385 26.471C52.3386 40.5399 52.3838 54.6112 52.4052 68.6824C52.4195 69.7252 52.1092 70.7465 51.5174 71.6052C49.8513 74.071 48.1853 76.5368 46.5715 79.0264C45.7552 80.276 44.7031 80.8686 43.1608 80.8639C32.1551 80.8242 21.1487 80.8242 10.1414 80.8639C8.6705 80.8639 7.64468 80.3022 6.86162 79.1169C5.17649 76.563 3.41759 74.052 1.80386 71.4529C1.31105 70.6517 1.03847 69.7346 1.01366 68.7943C0.96606 53.9804 0.987478 39.1642 0.966057 24.3503C0.95725 23.3669 1.25325 22.4049 1.81338 21.5965C2.59406 20.4469 3.35807 19.283 4.17445 18.0668ZM46.6786 26.6352L6.75451 26.6352L6.75451 45.5119C8.70145 44.4337 10.6293 43.2008 12.7048 42.2678C14.8469 41.3039 17.1176 40.6494 19.5334 40.9493C23.413 41.4253 26.5238 43.2508 28.9753 46.2879C31.7029 49.6653 36.0014 50.3341 39.6716 48.0111C42.6634 46.107 44.7246 43.3651 46.5216 40.3947C46.6245 40.2165 46.6802 40.0149 46.6834 39.8092C46.681 35.4416 46.6786 31.0694 46.6786 26.6352ZM46.6572 49.7009C45.9908 50.3126 45.4672 50.8601 44.8626 51.3409C41.7542 53.8638 38.2268 55.3537 34.1854 55.0539C30.2344 54.7611 27.0188 52.9117 24.5102 49.8176C21.8278 46.514 18.1791 45.7452 14.4137 47.6755C11.748 49.0464 9.4488 50.922 7.24243 52.926C7.05306 53.0847 6.90357 53.2855 6.80601 53.5125C6.70845 53.7394 6.66554 53.9861 6.68073 54.2327C6.70215 58.0409 6.68073 61.8491 6.69501 65.6573C6.69501 65.9405 6.7188 66.2261 6.73308 66.4903L46.6572 66.4903L46.6572 49.7009ZM9.2108 20.8087L44.1605 20.8087C43.6059 19.9756 43.1513 19.2164 42.6086 18.5214C42.4975 18.3835 42.3601 18.269 42.2045 18.1844C42.0488 18.0999 41.878 18.0469 41.7018 18.0287C31.6863 18.0017 21.6707 17.9977 11.6552 18.0168C11.4172 18.0168 11.0744 18.0763 10.9554 18.2381C10.3628 19.0402 9.82725 19.8852 9.2108 20.8087ZM9.2108 72.3121C9.81773 73.2261 10.3176 74.0282 10.8769 74.7851C10.97 74.8867 11.0828 74.9684 11.2084 75.0252C11.334 75.0821 11.4698 75.1129 11.6076 75.1159C21.6517 75.1333 31.6958 75.1333 41.7399 75.1159C41.8653 75.1239 41.9911 75.107 42.11 75.0661C42.2289 75.0253 42.3385 74.9613 42.4325 74.8779C43.0228 74.0758 43.5559 73.2332 44.1748 72.3073L9.2108 72.3121ZM38.1054 12.2545C38.1054 11.1763 38.1578 10.1672 38.0912 9.16037C38.0281 8.47425 37.7175 7.83454 37.2173 7.36065C36.7171 6.88676 36.0616 6.61108 35.3731 6.58508C33.9188 6.5351 32.5907 7.58949 32.4527 9.03898C32.3551 10.0886 32.4336 11.1573 32.4336 12.2545L38.1054 12.2545Z" fill="black"/>
</svg>
